Coordinates
version=1
nRows=13
nColumns=22
inDegrees=yes

Units are S.I. units (second, meters, Newtons, ...)
If the header above contains a line with 'inDegrees', this indicates whether rotational values are in degrees (yes) or radians (no).

endheader
time	pelvis_tilt	pelvis_list	pelvis_rotation	pelvis_tx	pelvis_ty	pelvis_tz	hip_flexion_r	hip_adduction_r	hip_rotation_r	knee_angle_r	ankle_angle_r	subtalar_angle_r	hip_flexion_l	hip_adduction_l	hip_rotation_l	knee_angle_l	ankle_angle_l	subtalar_angle_l	lumbar_extension	lumbar_bending	lumbar_rotation
      3.94000000	      4.76811183	     -2.67603697	    -90.09781021	      0.40309190	      1.07085045	      0.37785239	     -6.89550348	     -4.67499108	     12.29260966	    -39.77392418	     -1.34347037	     13.79308131	      9.99423781	      3.26822161	     -0.18603140	    -11.38585138	      2.58359737	      3.37823005	     -1.43006848	     -5.04248545	      1.14053797
      3.95000000	      4.91906519	     -2.74365282	    -90.22585530	      0.40687233	      1.07174730	      0.38526867	     -6.49403771	     -4.96443726	     12.32344603	    -40.98134907	     -2.38322857	     14.41016084	      9.32927082	      3.62712730	     -0.29622039	    -11.09028691	      2.89282210	      3.33270901	     -1.42613196	     -5.19044280	      0.84176624
      3.96000000	      5.06492680	     -2.78585276	    -90.31128484	      0.41057330	      1.07256815	      0.39245239	     -6.02654024	     -5.23904404	     12.29318564	    -42.23571272	     -3.27235845	     15.05244937	      8.72234537	      3.98308087	     -0.35370309	    -10.82385794	      3.19159614	      3.28473308	     -1.40982896	     -5.34191034	      0.49619561
      3.97000000	      5.23559478	     -2.81169249	    -90.36691008	      0.41417912	      1.07331964	      0.39932630	     -5.48563645	     -5.53069535	     12.21432216	    -43.55073323	     -4.02990921	     15.60784135	      8.17086522	      4.36778867	     -0.36200889	    -10.59312823	      3.42695263	      3.23355923	     -1.40349398	     -5.53380917	      0.12824401
      3.98000000	      5.37786467	     -2.80328560	    -90.41426935	      0.41767023	      1.07398719	      0.40596943	     -4.86632089	     -5.79081458	     12.11238390	    -44.88876118	     -4.59444344	     16.43719879	      7.66114809	      4.72151312	     -0.34312367	    -10.34845273	      3.70129067	      3.12081889	     -1.36965870	     -5.69921886	     -0.22631296
      3.99000000	      5.51948469	     -2.78998547	    -90.45158807	      0.42105458	      1.07460692	      0.41231216	     -4.19460031	     -6.04583809	     11.98354292	    -46.24403277	     -5.04539452	     17.20178867	      7.18830003	      5.07332092	     -0.34552139	    -10.12773131	      3.92144135	      2.97964839	     -1.35859838	     -5.86956744	     -0.57589196
      4.00000000	      5.65191064	     -2.76968116	    -90.49601146	      0.42428864	      1.07516457	      0.41836243	     -3.47008641	     -6.28296615	     11.85749758	    -47.59910089	     -5.37194543	     17.90697627	      6.74549149	      5.41110606	     -0.36191726	     -9.91728119	      4.12059636	      2.79956437	     -1.36440773	     -6.03793452	     -0.90467814
      4.01000000	      5.79881798	     -2.77369004	    -90.54861518	      0.42739126	      1.07570220	      0.42415183	     -2.73663892	     -6.53448534	     11.71838461	    -48.92533867	     -5.57313207	     18.32383476	      6.29403451	      5.76048799	     -0.41364362	     -9.70699994	      4.27110042	      2.64638828	     -1.42138389	     -6.22910777	     -1.21455634
      4.02000000	      5.87870930	     -2.72439737	    -90.62368187	      0.43032890	      1.07610838	      0.42968372	     -1.91004015	     -6.69702272	     11.62175933	    -50.21177154	     -5.64855548	     18.79183988	      5.92397959	      6.03251859	     -0.46282558	     -9.51726912	      4.46842630	      2.35851108	     -1.43217770	     -6.34881195	     -1.46142876
      4.03000000	      5.96458896	     -2.71300861	    -90.70919020	      0.43312053	      1.07651565	      0.43500656	     -1.10619477	     -6.85713395	     11.52891731	    -51.42989812	     -5.59025893	     18.90179624	      5.53266156	      6.30459153	     -0.54000192	     -9.33550171	      4.63376886	      2.11817507	     -1.50277358	     -6.48166213	     -1.69194711
      4.04000000	      6.04198350	     -2.74225722	    -90.79757562	      0.43576725	      1.07692186	      0.44010272	     -0.33185649	     -6.99226054	     11.45184739	    -52.57468845	     -5.37506395	     18.82246363	      5.13774388	      6.56054299	     -0.63565207	     -9.20190422	      4.79972613	      1.92167968	     -1.64131257	     -6.61340146	     -1.89852508
      4.05000000	      6.09615199	     -2.74715599	    -90.89171429	      0.43826338	      1.07724709	      0.44500372	      0.47987562	     -7.08145394	     11.39695987	    -53.64055378	     -5.03901150	     18.55164033	      4.79945240	      6.78372590	     -0.72567159	     -9.10217021	      4.96088618	      1.66370588	     -1.76031913	     -6.72692574	     -2.08102480
      4.06000000	      6.10700484	     -2.73772591	    -90.97536341	      0.44063240	      1.07752252	      0.44974174	      1.30311216	     -7.10604159	     11.33320294	    -54.60569963	     -4.63637884	     18.00558068	      4.49575114	      6.95419119	     -0.77713783	     -9.02270431	      5.15678703	      1.35412007	     -1.86850466	     -6.79546862	     -2.25752273
